<svg xmlns="http://www.w3.org/2000/svg" viewBox="0 0 120 120" width="120" height="120">
  <!-- Background circle -->
  <circle cx="60" cy="60" r="56" fill="#F1F5F9" stroke="#CBD5E1" stroke-width="2"/>
  <!-- Hair -->
  <path d="M 32 55 C 30 25, 60 20, 88 55 C 80 35, 45 35, 32 55 Z" fill="#334155"/>
  <path d="M 42 32 Q 52 18 70 24 Q 78 38 42 32 Z" fill="#475569"/>
  <!-- Face -->
  <circle cx="60" cy="65" r="32" fill="#FDF4EF"/>
  <circle cx="27" cy="65" r="6" fill="#FDF4EF"/>
  <circle cx="93" cy="65" r="6" fill="#FDF4EF"/>
  <!-- Surprised Eyes (Round) -->
  <circle cx="48" cy="60" r="5" fill="#1E293B"/>
  <circle cx="72" cy="60" r="5" fill="#1E293B"/>
  <circle cx="50" cy="58" r="1.8" fill="#FFFFFF"/>
  <circle cx="74" cy="58" r="1.8" fill="#FFFFFF"/>
  <!-- Raised Eyebrows -->
  <path d="M 41 47 Q 48 43 54 48" stroke="#334155" stroke-width="2" stroke-linecap="round" fill="none"/>
  <path d="M 66 48 Q 72 43 79 47" stroke="#334155" stroke-width="2" stroke-linecap="round" fill="none"/>
  <!-- Surprised Mouth (O shape) -->
  <ellipse cx="60" cy="78" rx="5" ry="7" fill="#64748B"/>
  <!-- Cheeks -->
  <circle cx="39" cy="67" r="4.5" fill="#FCA5A5" opacity="0.5"/>
  <circle cx="81" cy="67" r="4.5" fill="#FCA5A5" opacity="0.5"/>
</svg>
